# File created by Blade
# Date/Time:  Tue Jan 27 20:07:51 2015
# Frame Rate: 120.000 fps
#------------------------------------------------------
:FULLY-SPECIFIED
:DEGREES
2435
root 6.209047 32.430284 -3.575142 -0.933323 -14.262201 -7.553592
Spine 1.487901 -0.356369 4.198085
Head 27.453300 -12.061167 -0.375800
LeftShoulder -15.184907 3.107275 26.384004
LeftArm -11.076913 -22.910437 -73.831659
LeftForeArm -19.000048 -0.000000 114.766567
LeftHand 10.564709 0.000000 -10.447138
LeftHandThumb1 -26.253704 0.000000 33.147579
RightShoulder -19.700003 -19.346437 -22.410434
RightArm 10.968277 -14.854519 84.882918
RightForeArm -16.274643 0.000000 19.721247
RightHand 18.619799 -0.000000 1.763755
RightHandThumb1 -24.326973 -0.000000 -32.862282
LeftUpLeg 12.149308 3.854619 -2.560215
LeftLeg -5.316174 -0.000000 0.000000
LeftFoot -13.877227 10.400326 -13.740172
LeftToeBase 20.151929 -0.000000 -0.000000
RightUpLeg -24.199901 -18.632817 -24.965602
RightLeg 104.119051 -0.000000 -0.000000
RightFoot 24.019252 -32.422584 23.861956
RightToeBase 17.205381 -0.000000 -0.000000
2436
root 6.221193 32.419821 -3.577649 -0.926033 -14.502289 -7.465899
Spine 1.518581 -0.229207 4.115550
Head 27.474800 -12.025668 -0.448388
LeftShoulder -15.210691 3.156316 26.358358
LeftArm -11.131438 -22.995431 -73.736709
LeftForeArm -19.083752 -0.000000 114.817474
LeftHand 10.528271 -0.000000 -10.400037
LeftHandThumb1 -26.253704 0.000000 33.147579
RightShoulder -19.636742 -19.314457 -22.484742
RightArm 10.949360 -14.909212 84.915947
RightForeArm -16.298201 -0.000000 19.792211
RightHand 18.596505 -0.000000 1.713355
RightHandThumb1 -24.326973 -0.000000 -32.862282
LeftUpLeg 12.134831 3.968694 -2.683072
LeftLeg -5.304279 -0.000000 0.000000
LeftFoot -13.949877 10.458522 -13.804445
LeftToeBase 20.309146 -0.000000 -0.000000
RightUpLeg -24.471411 -19.848784 -24.499534
RightLeg 103.750952 -0.000000 -0.000000
RightFoot 24.057750 -32.360969 23.908980
RightToeBase 17.129601 -0.000000 -0.000000
2437
root 6.234902 32.406812 -3.579711 -0.993264 -14.749949 -7.368420
Spine 1.651732 -0.106505 4.030173
Head 27.433026 -11.940528 -0.514769
LeftShoulder -15.255211 3.176958 26.337234
LeftArm -11.177715 -23.102470 -73.660072
LeftForeArm -19.185574 -0.000000 114.853280
LeftHand 10.494489 -0.000000 -10.365128
LeftHandThumb1 -26.253704 0.000000 33.147579
RightShoulder -19.547879 -19.221781 -22.586047
RightArm 10.882850 -14.944227 84.966031
RightForeArm -16.368024 -0.000000 19.889393
RightHand 18.555048 -0.000000 1.688681
RightHandThumb1 -24.326973 -0.000000 -32.862282
LeftUpLeg 12.197960 4.114098 -2.806237
LeftLeg -5.331059 -0.000000 0.000000
LeftFoot -14.053689 10.547173 -13.994752
LeftToeBase 20.631494 -0.000000 -0.000000
RightUpLeg -24.675905 -20.995578 -24.086382
RightLeg 103.372950 -0.000000 -0.000000
RightFoot 24.044063 -32.301015 24.201825
RightToeBase 16.963260 -0.000000 -0.000000
2438
root 6.251499 32.393890 -3.581984 -1.003507 -14.986925 -7.246734
Spine 1.691192 0.011296 3.917469
Head 27.442357 -11.840667 -0.584545
LeftShoulder -15.326718 3.212146 26.310080
LeftArm -11.196785 -23.193638 -73.605723
LeftForeArm -19.226409 -0.000000 114.895479
LeftHand 10.468132 -0.000000 -10.330026
LeftHandThumb1 -26.253704 0.000000 33.147579
RightShoulder -19.481156 -19.154504 -22.673733
RightArm 10.850155 -15.061197 84.980995
RightForeArm -16.257137 -0.000000 19.947308
RightHand 18.569543 -0.000000 1.668309
RightHandThumb1 -24.326973 -0.000000 -32.862282
LeftUpLeg 12.239062 3.938026 -3.017486
LeftLeg -5.432468 -0.000000 0.000000
LeftFoot -14.081684 10.957621 -14.057197
LeftToeBase 20.386175 -0.000000 -0.000000
RightUpLeg -24.937384 -22.180819 -23.677570
RightLeg 102.982019 -0.000000 -0.000000
RightFoot 24.065819 -32.202409 24.301443
RightToeBase 16.877634 -0.000000 -0.000000
2439
root 6.265765 32.381539 -3.585796 -1.011950 -15.165691 -7.156698
Spine 1.731559 0.068723 3.842326
Head 27.465760 -11.737372 -0.689906
LeftShoulder -15.381724 3.205016 26.273085
LeftArm -11.262230 -23.258579 -73.527227
LeftForeArm -19.088859 0.000000 114.950222
LeftHand 10.473273 -0.000000 -10.024224
LeftHandThumb1 -26.253704 0.000000 33.147579
RightShoulder -19.409705 -19.129278 -22.757891
RightArm 10.858121 -15.151703 84.993285
RightForeArm -16.196781 0.000000 20.005202
RightHand 18.599383 -0.000000 1.669707
RightHandThumb1 -24.326973 -0.000000 -32.862282
LeftUpLeg 12.190993 4.015731 -3.144674
LeftLeg -5.346131 -0.000000 0.000000
LeftFoot -14.206921 10.982783 -14.111481
LeftToeBase 20.527979 -0.000000 -0.000000
RightUpLeg -25.163083 -23.437448 -23.216959
RightLeg 102.553553 -0.000000 -0.000000
RightFoot 24.002828 -32.230490 24.353871
RightToeBase 17.036550 -0.000000 -0.000000
2440
root 6.281219 32.369581 -3.588800 -1.010047 -15.339560 -7.059058
Spine 1.744182 0.152603 3.755251
Head 27.523222 -11.694154 -0.808840
LeftShoulder -15.433932 3.255491 26.221241
LeftArm -11.235856 -23.378218 -73.494186
LeftForeArm -19.162332 0.000000 114.991053
LeftHand 10.453282 -0.000000 -10.054361
LeftHandThumb1 -26.253704 0.000000 33.147579
RightShoulder -19.360754 -19.141293 -22.809128
RightArm 10.893272 -15.241561 84.982362
RightForeArm -16.118494 0.000000 20.065336
RightHand 18.601491 -0.000000 1.695423
RightHandThumb1 -24.326973 -0.000000 -32.862282
LeftUpLeg 12.137333 4.029176 -3.293391
LeftLeg -5.284347 -0.000000 0.000000
LeftFoot -14.286130 11.132382 -14.096332
LeftToeBase 20.497500 -0.000000 -0.000000
RightUpLeg -25.383225 -24.691285 -22.787771
RightLeg 102.093794 -0.000000 -0.000000
RightFoot 24.072770 -32.262430 24.422617
RightToeBase 16.715265 -0.000000 -0.000000
2441
root 6.294604 32.357118 -3.588372 -1.039048 -15.584016 -6.971072
Spine 1.794955 0.314913 3.681020
Head 27.556772 -11.652055 -0.925735
LeftShoulder -15.492595 3.237676 26.176707
LeftArm -11.256715 -23.482344 -73.435919
LeftForeArm -19.195587 -0.000000 115.037221
LeftHand 10.436895 0.000000 -10.111447
LeftHandThumb1 -26.253704 0.000000 33.147579
RightShoulder -19.302188 -19.106828 -22.878795
RightArm 10.855876 -15.288996 84.994573
RightForeArm -16.078326 -0.000000 20.141679
RightHand 18.613292 -0.000000 1.744845
RightHandThumb1 -24.326973 -0.000000 -32.862282
LeftUpLeg 12.157634 4.046798 -3.436549
LeftLeg -5.273612 -0.000000 0.000000
LeftFoot -14.312028 11.333751 -13.995353
LeftToeBase 20.233612 -0.000000 -0.000000
RightUpLeg -25.584186 -25.843102 -22.361731
RightLeg 101.657781 -0.000000 -0.000000
RightFoot 23.887578 -32.191623 24.758662
RightToeBase 16.879507 -0.000000 -0.000000
2442
root 6.305517 32.345686 -3.589594 -1.069083 -15.844415 -6.878356
Spine 1.845360 0.498057 3.582325
Head 27.598263 -11.592029 -1.008976
LeftShoulder -15.552090 3.271698 26.161988
LeftArm -11.224258 -23.586475 -73.432854
LeftForeArm -19.198231 -0.000000 115.073064
LeftHand 10.408427 -0.000000 -10.158787
LeftHandThumb1 -26.253704 0.000000 33.147579
RightShoulder -19.271548 -19.129506 -22.901118
RightArm 10.910117 -15.342485 84.984234
RightForeArm -16.057124 -0.000000 20.185110
RightHand 18.603930 0.000000 1.820555
RightHandThumb1 -24.326973 -0.000000 -32.862282
LeftUpLeg 12.177051 4.122213 -3.566706
LeftLeg -5.278193 -0.000000 0.000000
LeftFoot -14.361487 11.509404 -14.048416
LeftToeBase 20.011874 -0.000000 -0.000000
RightUpLeg -25.825317 -26.976341 -21.915256
RightLeg 101.200211 -0.000000 -0.000000
RightFoot 23.948821 -32.180172 24.789515
RightToeBase 16.751807 -0.000000 -0.000000
2443
root 6.316157 32.333371 -3.589549 -1.084108 -16.108536 -6.783688
Spine 1.861639 0.705103 3.482872
Head 27.665546 -11.534253 -1.092826
LeftShoulder -15.595156 3.248209 26.137084
LeftArm -11.246612 -23.686495 -73.383991
LeftForeArm -19.236520 -0.000000 115.143298
LeftHand 10.327510 -0.000000 -10.208097
LeftHandThumb1 -26.253704 0.000000 33.147579
RightShoulder -19.205786 -19.105579 -22.949300
RightArm 10.854450 -15.365858 85.001604
RightForeArm -16.052359 0.000000 20.256700
RightHand 18.605569 0.000000 1.833410
RightHandThumb1 -24.326973 -0.000000 -32.862282
LeftUpLeg 12.183015 4.178530 -3.710226
LeftLeg -5.281711 -0.000000 0.000000
LeftFoot -14.447749 11.735492 -14.031847
LeftToeBase 20.052935 -0.000000 -0.000000
RightUpLeg -26.068970 -28.076628 -21.489761
RightLeg 100.741803 -0.000000 -0.000000
RightFoot 23.972673 -32.104617 24.868666
RightToeBase 16.856290 -0.000000 -0.000000
2444
root 6.326939 32.321494 -3.589968 -1.090825 -16.390110 -6.700245
Spine 1.871474 0.956733 3.392310
Head 27.727037 -11.511245 -1.153827
LeftShoulder -15.615927 3.263613 26.151996
LeftArm -11.236971 -23.771972 -73.407706
LeftForeArm -19.220002 0.000000 115.193747
LeftHand 10.337977 -0.000000 -10.296109
LeftHandThumb1 -26.253704 0.000000 33.147579
RightShoulder -19.154442 -19.098943 -22.971026
RightArm 10.806333 -15.368125 85.002468
RightForeArm -16.057042 -0.000000 20.327072
RightHand 18.610340 -0.000000 1.836290
RightHandThumb1 -24.326973 -0.000000 -32.862282
LeftUpLeg 12.189912 4.300260 -3.827785
LeftLeg -5.291200 -0.000000 0.000000
LeftFoot -14.609280 11.846299 -14.249862
LeftToeBase 20.363966 -0.000000 -0.000000
RightUpLeg -26.328916 -29.148224 -21.058549
RightLeg 100.268294 -0.000000 -0.000000
RightFoot 24.020180 -32.018198 24.856554
RightToeBase 16.976957 -0.000000 -0.000000
